<svg width="211" height="29" viewBox="0 0 211 29" fill="none" xmlns="http://www.w3.org/2000/svg">
<path d="M30.32 11.784C30.32 10.8 31.112 10.08 32.456 10.08C33.656 10.08 34.496 10.512 35.672 11.424C35.864 11.568 36.032 11.544 36.176 11.352L37.496 9.744C37.664 9.552 37.664 9.408 37.496 9.24C36.152 7.896 34.448 7.008 32.36 7.008C29.6 7.008 27.128 8.784 27.128 11.712C27.128 17.208 35.096 16.296 35.096 19.272C35.096 20.472 33.968 21.24 32.552 21.24C31.088 21.24 29.96 20.616 28.808 19.608C28.616 19.44 28.424 19.464 28.28 19.632L26.84 21.192C26.696 21.36 26.696 21.528 26.816 21.696C27.92 23.016 30.032 24.312 32.48 24.312C35.408 24.312 38.312 22.512 38.312 19.344C38.312 13.512 30.32 14.736 30.32 11.784Z" fill="white"/>
<path d="M46.6873 11.976C45.1993 11.976 43.9993 12.696 43.1113 13.704L43.0393 12.6C43.0153 12.384 42.8953 12.24 42.6793 12.24H40.4713C40.2553 12.24 40.1113 12.384 40.1113 12.6V28.2C40.1113 28.416 40.2553 28.56 40.4713 28.56H42.9193C43.1353 28.56 43.2793 28.416 43.2793 28.2V22.824C44.1193 23.712 45.2473 24.312 46.6873 24.312C49.9753 24.312 52.3753 21.576 52.3753 18.144C52.3753 14.712 49.9753 11.976 46.6873 11.976ZM46.3033 21.432C44.5753 21.432 43.3033 19.896 43.3033 18.12C43.3033 16.344 44.5753 14.856 46.3033 14.856C48.0553 14.856 49.3273 16.248 49.3273 18.12C49.3273 20.016 48.0553 21.432 46.3033 21.432Z" fill="white"/>
<path d="M59.7926 24.312C63.1766 24.312 65.8886 21.6 65.8886 18.144C65.8886 14.688 63.1766 11.976 59.7926 11.976C56.4086 11.976 53.6966 14.688 53.6966 18.144C53.6966 21.6 56.4086 24.312 59.7926 24.312ZM59.7926 21.384C58.0886 21.384 56.7446 20.04 56.7446 18.144C56.7446 16.248 58.0886 14.904 59.7926 14.904C61.4726 14.904 62.8406 16.248 62.8406 18.144C62.8406 20.04 61.4726 21.384 59.7926 21.384Z" fill="white"/>
<path d="M73.8474 12.24H72.1674V9C72.1674 8.784 72.0234 8.64 71.8074 8.64H69.3594C69.1434 8.64 68.9994 8.784 68.9994 9V12.24H67.3194C67.1034 12.24 66.9594 12.384 66.9594 12.6V14.472C66.9594 14.688 67.1034 14.832 67.3194 14.832H68.9994V23.64C68.9994 23.856 69.1434 24 69.3594 24H71.8074C72.0234 24 72.1674 23.856 72.1674 23.64V14.832H73.8474C74.0634 14.832 74.2074 14.688 74.2074 14.472V12.6C74.2074 12.384 74.0634 12.24 73.8474 12.24Z" fill="white"/>
<path d="M77.5323 10.008C78.4923 10.008 79.2603 9.216 79.2603 8.256C79.2603 7.296 78.4923 6.504 77.5323 6.504C76.5483 6.504 75.7803 7.296 75.7803 8.256C75.7803 9.216 76.5483 10.008 77.5323 10.008ZM75.9483 12.6V23.64C75.9483 23.856 76.0923 24 76.3083 24H78.7563C78.9723 24 79.1163 23.856 79.1163 23.64V12.6C79.1163 12.384 78.9723 12.24 78.7563 12.24H76.3083C76.0923 12.24 75.9483 12.384 75.9483 12.6Z" fill="white"/>
<path d="M90.507 8.232C89.859 7.416 88.611 6.336 86.715 6.336C84.195 6.336 82.563 7.608 82.563 10.248V12.24H81.171C80.955 12.24 80.811 12.384 80.811 12.6V14.472C80.811 14.688 80.955 14.832 81.171 14.832H82.563V23.64C82.563 23.856 82.707 24 82.923 24H85.371C85.587 24 85.731 23.856 85.731 23.64V14.832H88.107C88.323 14.832 88.467 14.688 88.467 14.472V12.6C88.467 12.384 88.323 12.24 88.107 12.24H85.731V10.656C85.731 9.768 85.947 9.168 87.099 9.168C87.699 9.168 88.323 9.456 88.923 9.816C89.043 9.888 89.163 9.864 89.259 9.768L90.483 8.568C90.579 8.472 90.603 8.328 90.507 8.232Z" fill="white"/>
<path d="M102.041 12.24H99.5208C99.3288 12.24 99.1608 12.336 99.0888 12.528L96.2328 20.304L93.3528 12.528C93.2808 12.336 93.1128 12.24 92.9208 12.24H90.4488C90.1848 12.24 90.0648 12.384 90.1608 12.648L94.6968 24.024L92.9928 28.152C92.8728 28.416 93.0168 28.56 93.2808 28.56H95.6808C95.8728 28.56 96.0408 28.464 96.1128 28.272L102.329 12.648C102.425 12.384 102.305 12.24 102.041 12.24Z" fill="white"/>
<path d="M107.195 11.784C107.195 10.8 107.987 10.08 109.331 10.08C110.531 10.08 111.371 10.512 112.547 11.424C112.739 11.568 112.907 11.544 113.051 11.352L114.371 9.744C114.539 9.552 114.539 9.408 114.371 9.24C113.027 7.896 111.323 7.008 109.235 7.008C106.475 7.008 104.003 8.784 104.003 11.712C104.003 17.208 111.971 16.296 111.971 19.272C111.971 20.472 110.843 21.24 109.427 21.24C107.963 21.24 106.835 20.616 105.683 19.608C105.491 19.44 105.299 19.464 105.155 19.632L103.715 21.192C103.571 21.36 103.571 21.528 103.691 21.696C104.795 23.016 106.907 24.312 109.355 24.312C112.283 24.312 115.187 22.512 115.187 19.344C115.187 13.512 107.195 14.736 107.195 11.784Z" fill="white"/>
<path d="M123.874 11.976C122.17 11.976 120.922 12.912 120.154 14.16V6.84C120.154 6.624 120.01 6.48 119.794 6.48H117.346C117.13 6.48 116.986 6.624 116.986 6.84V23.64C116.986 23.856 117.13 24 117.346 24H119.794C120.01 24 120.154 23.856 120.154 23.64V17.208C120.154 16.656 120.97 14.904 122.746 14.904C123.898 14.904 124.954 15.576 124.954 17.52V23.64C124.954 23.856 125.098 24 125.314 24H127.762C127.978 24 128.122 23.856 128.122 23.64V16.944C128.122 13.8 126.274 11.976 123.874 11.976Z" fill="white"/>
<path d="M136.011 24.312C139.395 24.312 142.107 21.6 142.107 18.144C142.107 14.688 139.395 11.976 136.011 11.976C132.627 11.976 129.915 14.688 129.915 18.144C129.915 21.6 132.627 24.312 136.011 24.312ZM136.011 21.384C134.307 21.384 132.963 20.04 132.963 18.144C132.963 16.248 134.307 14.904 136.011 14.904C137.691 14.904 139.059 16.248 139.059 18.144C139.059 20.04 137.691 21.384 136.011 21.384Z" fill="white"/>
<path d="M162.443 12.24H160.043C159.851 12.24 159.683 12.336 159.611 12.528L156.947 20.328L154.139 12.528C154.091 12.408 154.019 12.312 153.899 12.288C153.851 12.264 153.779 12.24 153.707 12.24H151.451C151.379 12.24 151.307 12.264 151.259 12.288C151.139 12.312 151.067 12.408 151.019 12.528L148.235 20.328L145.523 12.528C145.451 12.336 145.283 12.24 145.091 12.24H142.691C142.427 12.24 142.307 12.384 142.403 12.648L146.507 23.712C146.579 23.904 146.747 24 146.939 24H149.339C149.531 24 149.699 23.904 149.771 23.712L152.579 16.368L155.387 23.712C155.459 23.904 155.627 24 155.819 24H158.195C158.387 24 158.555 23.904 158.627 23.712L162.731 12.648C162.827 12.384 162.707 12.24 162.443 12.24Z" fill="white"/>
<path d="M169.105 21.384C167.329 21.384 166.081 19.992 166.081 18.144C166.081 16.296 167.329 14.904 169.105 14.904C170.185 14.904 170.881 15.36 171.553 15.96C171.745 16.128 171.913 16.152 172.081 15.984L173.545 14.568C173.689 14.424 173.713 14.232 173.569 14.064C172.465 12.792 170.857 11.976 169.033 11.976C165.649 11.976 163.033 14.688 163.033 18.144C163.033 21.6 165.649 24.312 169.033 24.312C170.905 24.312 172.537 23.496 173.641 22.224C173.785 22.056 173.761 21.864 173.617 21.72L172.153 20.328C171.985 20.16 171.817 20.16 171.625 20.328C170.953 20.928 170.233 21.384 169.105 21.384Z" fill="white"/>
<path d="M186.608 12.24H184.4C184.184 12.24 184.064 12.384 184.04 12.6L183.968 13.704C183.08 12.696 181.88 11.976 180.392 11.976C177.104 11.976 174.704 14.712 174.704 18.144C174.704 21.576 177.104 24.312 180.392 24.312C181.928 24.312 183.104 23.616 183.944 22.632L184.04 23.64C184.064 23.856 184.184 24 184.4 24H186.608C186.824 24 186.968 23.856 186.968 23.64V12.6C186.968 12.384 186.824 12.24 186.608 12.24ZM180.776 21.432C179.024 21.432 177.752 20.016 177.752 18.12C177.752 16.248 179.024 14.856 180.776 14.856C182.504 14.856 183.776 16.344 183.776 18.12C183.776 19.896 182.504 21.432 180.776 21.432Z" fill="white"/>
<path d="M192.007 15.528C192.007 14.928 192.559 14.52 193.303 14.52C194.143 14.52 194.695 14.832 195.607 15.432C195.823 15.6 195.991 15.648 196.135 15.456L197.047 14.256C197.167 14.112 197.215 13.92 197.071 13.752C196.087 12.6 194.551 11.976 193.039 11.976C190.927 11.976 188.959 13.296 188.959 15.552C188.959 19.512 194.647 18.792 194.647 20.664C194.647 21.408 193.903 21.648 193.135 21.648C192.199 21.648 191.167 21.192 190.207 20.568C189.991 20.4 189.823 20.352 189.679 20.544L188.743 21.864C188.647 22.008 188.599 22.176 188.743 22.344C189.583 23.328 191.215 24.312 193.231 24.312C195.391 24.312 197.719 22.992 197.719 20.712C197.719 16.392 192.007 17.448 192.007 15.528Z" fill="white"/>
<path d="M210.553 17.88C210.553 14.688 208.369 11.976 204.961 11.976C201.553 11.976 199.033 14.688 199.033 18.144C199.033 21.6 201.553 24.312 205.225 24.312C206.929 24.312 208.465 23.64 209.593 22.512C209.785 22.32 209.785 22.152 209.617 21.984L208.561 20.952C208.393 20.784 208.249 20.784 208.033 20.928C207.217 21.504 206.473 21.744 205.537 21.744C203.689 21.744 202.489 20.856 202.177 19.296H209.713C210.433 19.296 210.553 18.816 210.553 17.88ZM204.985 14.664C206.401 14.664 207.529 15.576 207.745 17.232H202.129C202.393 15.576 203.545 14.664 204.985 14.664Z" fill="white"/>
<path d="M19.4922 24.2494C19.5347 24.0457 19.5367 23.8355 19.4979 23.631H19.4963C19.4184 23.2185 19.1798 22.8538 18.833 22.6171C18.4862 22.3805 18.0596 22.2913 17.647 22.3691C16.868 22.5068 16.0684 22.5575 15.2783 22.5781C13.7852 22.6193 11.7839 22.5132 9.70024 21.9543C7.61499 21.3969 5.82899 20.4865 4.55599 19.7059C3.88466 19.2943 3.20699 18.8541 2.60849 18.3395C2.28996 18.066 1.87582 17.9302 1.45716 17.9619C1.0385 17.9937 0.649595 18.1905 0.375987 18.5089C-0.186096 19.1628 -0.108513 20.1793 0.545404 20.743C1.27532 21.3668 2.08599 21.9052 2.90141 22.4055C4.34857 23.2922 6.41799 24.3546 8.88007 25.0133C11.3422 25.6735 13.6649 25.7891 15.3607 25.7448C16.3233 25.7194 17.2844 25.6403 18.2344 25.4819C18.439 25.4435 18.634 25.3652 18.8082 25.2513C18.9825 25.1375 19.1326 24.9904 19.2499 24.8185C19.3673 24.6465 19.4496 24.4532 19.4922 24.2494Z" fill="white"/>
<path d="M19.1404 16.5527C18.7685 16.3654 18.3377 16.3321 17.9415 16.4601C17.3714 16.6078 16.7898 16.7069 16.203 16.7562C15.0202 16.8543 13.2992 16.8195 11.225 16.2653C9.15082 15.7096 7.64191 14.8768 6.66657 14.2023C6.17875 13.8751 5.72568 13.499 5.31441 13.0797C5.03479 12.769 4.64486 12.5799 4.22779 12.5527C3.81071 12.5255 3.39952 12.6623 3.08191 12.934C2.76571 13.2103 2.57222 13.6009 2.54401 14.0199C2.5158 14.4389 2.65518 14.8519 2.93149 15.1681C3.5094 15.7872 4.16807 16.3239 4.86316 16.8053C6.09657 17.6587 7.93324 18.6609 10.4048 19.3243C12.8764 19.9862 14.968 20.0368 16.4627 19.9133C17.2955 19.8437 18.1584 19.7297 18.9532 19.4605C19.3461 19.3224 19.6687 19.0351 19.8513 18.6608C20.0338 18.2866 20.0616 17.8554 19.9285 17.4609C19.7955 17.0663 19.5123 16.74 19.1404 16.5527Z" fill="white"/>
<path d="M20.4257 12.6008C20.3126 13.0021 20.0458 13.3426 19.6832 13.5483C19.0028 13.8764 18.2713 14.0852 17.5203 14.1658C16.2283 14.3305 14.3822 14.2909 11.9296 13.6338C9.47541 12.9768 7.85724 12.0869 6.82016 11.2984C6.21017 10.8535 5.68105 10.3073 5.25582 9.68343C5.15097 9.50379 5.08255 9.30526 5.05445 9.09917C5.02635 8.89309 5.03913 8.68348 5.09207 8.48234C5.145 8.28119 5.23705 8.09244 5.36295 7.92688C5.48885 7.76132 5.64614 7.62219 5.82582 7.51743C6.59374 7.06935 7.48041 7.36068 7.97124 8.0526C8.00607 8.10168 8.21982 8.3851 8.73441 8.77618C9.41682 9.29551 10.6566 10.0143 12.7482 10.5748C14.8413 11.1353 16.2742 11.1322 17.1245 11.0245C17.4665 10.9818 17.8338 10.9232 18.1505 10.7775C18.5175 10.5797 18.9477 10.5346 19.3478 10.6521C19.7478 10.7696 20.0854 11.0401 20.2872 11.4049C20.489 11.7698 20.5388 12.1995 20.4257 12.6008Z" fill="white"/>
<circle cx="14.4289" cy="4.5" r="3" stroke="white" stroke-width="3"/>
</svg>
