<svg width="14" height="14" viewBox="0 0 14 14" fill="none" xmlns="http://www.w3.org/2000/svg">
<path d="M11.1458 6.65536C11.058 6.65536 10.9664 6.63493 10.8827 6.59517C9.33727 5.82247 7.67348 5.43195 5.93328 5.43195C5.02901 5.43195 4.12883 5.54413 3.25314 5.75923C2.92997 5.83876 2.60778 5.643 2.5283 5.32489C2.44878 5.00181 2.64351 4.61641 2.96157 4.53588C3.93413 4.29738 4.92909 4.17396 5.93328 4.17396C7.85599 4.17396 9.70424 4.6083 11.4129 5.46054C11.7105 5.60736 11.8308 5.96623 11.6829 6.26487C11.58 6.47184 11.369 6.65536 11.1458 6.65536ZM10.7991 8.62596C10.7074 8.80536 10.5239 9.09595 10.3372 9.09595C10.2537 9.09595 10.1742 9.07652 10.0947 9.03677C8.79992 8.36292 7.40229 8.02445 5.93328 8.02445C5.12484 8.02445 4.32355 8.12846 3.54775 8.34359C3.26844 8.41904 2.98191 8.25586 2.90649 7.97657C2.83107 7.69414 2.9942 7.2201 3.27247 7.14468C4.13698 6.91019 5.0331 6.78987 5.93328 6.78987C7.54605 6.78987 9.15474 7.18037 10.5759 7.92149C10.8348 8.05304 10.9347 8.36701 10.7991 8.62596ZM9.97028 11.0828C9.89075 11.2306 9.73582 11.3142 9.58082 11.3142C9.50443 11.3142 9.43301 11.2979 9.36166 11.2582C8.31779 10.6852 7.13112 10.3784 5.93328 10.3784C5.21558 10.3784 4.50295 10.4855 3.82606 10.6964C3.58751 10.7688 3.33672 10.6373 3.26434 10.4018C3.19298 10.1673 3.3245 9.66578 3.55896 9.58931C4.32762 9.35486 5.12484 9.23152 5.93328 9.23152C7.28304 9.23152 8.6206 9.57402 9.796 10.2235C10.0142 10.3427 10.0906 10.8636 9.97028 11.0828ZM6.95578 0.733326C3.35608 0.733326 0.433327 3.65611 0.433327 7.25576C0.433327 10.8606 3.35608 13.7833 6.95578 13.7833C10.5605 13.7833 13.4833 10.8606 13.4833 7.25576C13.4833 3.65611 10.5605 0.733326 6.95578 0.733326Z" fill="white"/>
</svg>
